<?xml version="1.0" encoding="iso-8859-1"?>
<!-- Generator: Adobe Illustrator 19.0.0, SVG Export Plug-In . SVG Version: 6.00 Build 0)  -->
<svg version="1.1" id="Capa_1" xmlns="http://www.w3.org/2000/svg" xmlns:xlink="http://www.w3.org/1999/xlink" x="0px" y="0px"
	 viewBox="0 0 512.533 512.533" style="enable-background:new 0 0 512.533 512.533;" xml:space="preserve">
<path style="fill:#F3705B;" d="M406.6,62.4c-83.2-83.2-217.6-83.2-299.733,0c-83.2,83.2-83.2,216.533,0,299.733l149.333,150.4
	L405.533,363.2C488.733,280,488.733,145.6,406.6,62.4z"/>
<path style="fill:#E8EAE9;" d="M256.2,363.2c-83.2,0-150.4-67.2-150.4-150.4S173,62.4,256.2,62.4s150.4,67.2,150.4,150.4
	S339.4,363.2,256.2,363.2z"/>
<g>
	<path style="fill:#435B6C;" d="M256.2,235.2c-41.6,0-77.867,19.2-102.4,49.067c22.4,32,59.733,53.333,102.4,53.333
		s80-21.333,102.4-53.333C334.066,254.4,297.8,235.2,256.2,235.2z"/>
	<circle style="fill:#435B6C;" cx="256.2" cy="149.867" r="53.333"/>
</g>
<g>
</g>
<g>
</g>
<g>
</g>
<g>
</g>
<g>
</g>
<g>
</g>
<g>
</g>
<g>
</g>
<g>
</g>
<g>
</g>
<g>
</g>
<g>
</g>
<g>
</g>
<g>
</g>
<g>
</g>
</svg>
